<svg width="418" height="344" viewBox="0 0 418 344" fill="none" xmlns="http://www.w3.org/2000/svg">
<rect width="418" height="343.586" fill="white"/>
<path d="M276.121 105.656L302.955 129.724V227.1L276.121 251.721H195.896V300.133H142.781V105.656H276.121ZM249.563 154.345H195.896V202.756H249.563V154.345Z" fill="#474747"/>
<path d="M122.164 86.1574L133.008 172.913C133.429 176.277 128.994 177.874 127.173 175.014L46.5611 48.3372C45.2146 46.2214 46.7345 43.4528 49.2424 43.4528H283.077C284.832 43.4528 286.255 44.8757 286.255 46.6309V79.4068C286.255 81.1621 284.832 82.585 283.077 82.585H125.317C123.406 82.585 121.927 84.2605 122.164 86.1574Z" fill="#474747"/>
<path d="M324.279 260.491L318.232 223.557C317.679 220.18 322.121 218.434 324.015 221.284L371.264 292.355C372.669 294.467 371.154 297.293 368.618 297.293H278.397C276.642 297.293 275.219 295.87 275.219 294.114V267.361C275.219 265.606 276.642 264.183 278.397 264.183H321.142C323.102 264.183 324.595 262.426 324.279 260.491Z" fill="#474747"/>
</svg>
