<svg width="159" height="31" viewBox="0 0 159 31" fill="none" xmlns="http://www.w3.org/2000/svg">
<g clip-path="url(#clip0_1_3)">
<path fill-rule="evenodd" clip-rule="evenodd" d="M20.1156 9.05611C18.8212 8.20454 17.2994 7.75 15.7426 7.75V0C18.8561 0 21.8998 0.90906 24.4887 2.61222C27.0775 4.31538 29.0953 6.73615 30.2868 9.56838C31.4783 12.4006 31.7901 15.5172 31.1827 18.5239C30.5752 21.5306 29.0759 24.2925 26.8742 26.4601C24.6726 28.6279 21.8675 30.1041 18.8138 30.7022C15.76 31.3002 12.5947 30.9933 9.71813 29.8201C6.84157 28.6469 4.38291 26.6603 2.6531 24.1113C0.923286 21.5624 0 18.5656 0 15.5H7.87129C7.87129 17.0328 8.33294 18.5312 9.19783 19.8057C10.0627 21.0802 11.2921 22.0735 12.7304 22.6601C14.1686 23.2467 15.7513 23.4001 17.2782 23.101C18.8051 22.802 20.2076 22.0639 21.3084 20.9801C22.4092 19.8962 23.1589 18.5153 23.4626 17.0119C23.7663 15.5086 23.6105 13.9503 23.0147 12.5342C22.4189 11.1181 21.4101 9.90768 20.1156 9.05611Z" fill="#474747"/>
<path fill-rule="evenodd" clip-rule="evenodd" d="M7.87128 4.09582e-06C7.87128 1.01775 7.66769 2.02553 7.27212 2.9658C6.87655 3.90607 6.29676 4.76043 5.56584 5.48008C4.83493 6.19974 3.9672 6.7706 3.01221 7.16007C2.05722 7.54954 1.03367 7.75 3.44062e-07 7.75L0 15.5C2.06734 15.5 4.11444 15.0991 6.02443 14.3201C7.93441 13.5412 9.66987 12.3995 11.1316 10.9601C12.5935 9.52088 13.7531 7.81216 14.5442 5.9316C15.3354 4.05104 15.7426 2.03549 15.7426 0L7.87128 4.09582e-06Z" fill="#474747"/>
<path d="M98.8783 11.2007H95.0592V23.1452H98.8783V11.2007Z" fill="#474747"/>
<path d="M95.4842 8.9641C95.8833 9.35734 96.3823 9.55396 96.9813 9.55396C97.5803 9.55396 98.0715 9.35734 98.4541 8.9641C98.8374 8.55452 99.0287 8.06293 99.0287 7.48947C99.0287 6.89963 98.8374 6.40807 98.4541 6.01485C98.0715 5.6216 97.5803 5.42499 96.9813 5.42499C96.3823 5.42499 95.8833 5.6216 95.4842 6.01485C95.1009 6.40807 94.9096 6.89963 94.9096 7.48947C94.9096 8.06293 95.1009 8.55452 95.4842 8.9641Z" fill="#474747"/>
<path d="M40.2665 23.1452V5.79364H44.1855V19.7536H51.9987V23.1452H40.2665Z" fill="#474747"/>
<path fill-rule="evenodd" clip-rule="evenodd" d="M59.0562 23.4155C57.8081 23.4155 56.6766 23.1452 55.6614 22.6045C54.6629 22.0474 53.8725 21.2938 53.29 20.3434C52.7076 19.3931 52.4164 18.3281 52.4164 17.1484C52.4164 15.9687 52.7076 14.9119 53.29 13.9779C53.8725 13.044 54.6629 12.3066 55.6614 11.766C56.6599 11.2088 57.7915 10.9303 59.0562 10.9303C60.321 10.9303 61.4526 11.2007 62.451 11.7413C63.4495 12.2821 64.24 13.0276 64.8224 13.9779C65.4049 14.9119 65.6961 15.9687 65.6961 17.1484C65.6961 18.3281 65.4049 19.3931 64.8224 20.3434C64.24 21.2938 63.4495 22.0474 62.451 22.6045C61.4526 23.1452 60.321 23.4155 59.0562 23.4155ZM59.0562 19.9993C59.6054 19.9993 60.088 19.8846 60.5041 19.6552C60.9201 19.4095 61.2362 19.0736 61.4526 18.6476C61.6855 18.2052 61.802 17.7054 61.802 17.1484C61.802 16.5913 61.6855 16.1079 61.4526 15.6983C61.2196 15.2723 60.8951 14.9446 60.479 14.7152C60.0796 14.4694 59.6054 14.3466 59.0562 14.3466C58.5237 14.3466 58.0495 14.4694 57.6334 14.7152C57.2174 14.9446 56.8929 15.2723 56.6599 15.6983C56.4269 16.1243 56.3105 16.6159 56.3105 17.1729C56.3105 17.7136 56.4269 18.2052 56.6599 18.6476C56.8929 19.0736 57.2174 19.4095 57.6334 19.6552C58.0495 19.8846 58.5237 19.9993 59.0562 19.9993Z" fill="#474747"/>
<path fill-rule="evenodd" clip-rule="evenodd" d="M68.7208 27.8149C69.7359 28.2736 70.9091 28.503 72.2405 28.503C73.5384 28.503 74.6951 28.2491 75.7101 27.7411C76.7253 27.2332 77.524 26.5287 78.1065 25.6276C78.6889 24.7264 78.9805 23.6614 78.9805 22.4325V11.2007H75.2358V12.0032C74.9573 11.7724 74.6411 11.5787 74.2873 11.4219C73.6383 11.1106 72.8977 10.9549 72.0657 10.9549C70.9508 10.9549 69.9606 11.217 69.0953 11.7413C68.2298 12.2493 67.5476 12.9538 67.0483 13.855C66.5491 14.7398 66.2995 15.7393 66.2995 16.8535C66.2995 17.9513 66.5491 18.9507 67.0483 19.8519C67.5476 20.753 68.2298 21.4658 69.0953 21.9901C69.9606 22.5144 70.9508 22.7766 72.0657 22.7766C72.8811 22.7766 73.6216 22.6209 74.2873 22.3096C74.6097 22.1588 74.901 21.9811 75.161 21.7764V22.5308C75.161 23.3664 74.8864 24.0136 74.3372 24.4724C73.8047 24.9312 73.0642 25.1605 72.1156 25.1605C71.3501 25.1605 70.6928 25.0295 70.1436 24.7673C69.6111 24.5052 69.1285 24.1201 68.6958 23.6122L66.3494 25.9224C66.9318 26.7417 67.7224 27.3725 68.7208 27.8149ZM74.1625 19.09C73.7797 19.3194 73.3221 19.4341 72.7896 19.4341C72.2571 19.4341 71.7911 19.3194 71.3917 19.09C71.0089 18.8606 70.7094 18.5492 70.4931 18.156C70.2767 17.7464 70.1686 17.3122 70.1686 16.8535C70.1686 16.3619 70.2767 15.9195 70.4931 15.5263C70.7094 15.133 71.0173 14.8217 71.4167 14.5923C71.8161 14.3629 72.2737 14.2482 72.7896 14.2482C73.3221 14.2482 73.7797 14.3629 74.1625 14.5923C74.5619 14.8217 74.8614 15.133 75.0611 15.5263C75.2775 15.9195 75.3856 16.3619 75.3856 16.8535C75.3856 17.345 75.2775 17.7873 75.0611 18.1806C74.8614 18.5575 74.5619 18.8606 74.1625 19.09Z" fill="#474747"/>
<path fill-rule="evenodd" clip-rule="evenodd" d="M87.0179 23.4155C85.7695 23.4155 84.6376 23.1452 83.623 22.6045C82.6241 22.0474 81.8338 21.2938 81.2514 20.3434C80.6689 19.3931 80.3776 18.3281 80.3776 17.1484C80.3776 15.9687 80.6689 14.9119 81.2514 13.9779C81.8338 13.044 82.6241 12.3066 83.623 11.766C84.6211 11.2088 85.753 10.9303 87.0179 10.9303C88.282 10.9303 89.4139 11.2007 90.412 11.7413C91.4108 12.2821 92.2011 13.0276 92.7836 13.9779C93.3661 14.9119 93.6573 15.9687 93.6573 17.1484C93.6573 18.3281 93.3661 19.3931 92.7836 20.3434C92.2011 21.2938 91.4108 22.0474 90.412 22.6045C89.4139 23.1452 88.282 23.4155 87.0179 23.4155ZM87.0179 19.9993C87.5665 19.9993 88.049 19.8846 88.4654 19.6552C88.881 19.4095 89.1974 19.0736 89.4139 18.6476C89.6469 18.2052 89.7634 17.7054 89.7634 17.1484C89.7634 16.5913 89.6469 16.1079 89.4139 15.6983C89.1809 15.2723 88.8566 14.9446 88.4402 14.7152C88.0411 14.4694 87.5665 14.3466 87.0179 14.3466C86.485 14.3466 86.0103 14.4694 85.5947 14.7152C85.1783 14.9446 84.854 15.2723 84.6211 15.6983C84.3881 16.1243 84.2716 16.6159 84.2716 17.1729C84.2716 17.7136 84.3881 18.2052 84.6211 18.6476C84.854 19.0736 85.1783 19.4095 85.5947 19.6552C86.0103 19.8846 86.485 19.9993 87.0179 19.9993Z" fill="#474747"/>
<path fill-rule="evenodd" clip-rule="evenodd" d="M108.058 23.391C107.243 23.391 106.494 23.2354 105.811 22.924C105.452 22.7602 105.128 22.5646 104.838 22.3372V28.1836H101.069V11.2007H104.888V12.0251C105.165 11.8019 105.473 11.609 105.811 11.4464C106.494 11.1187 107.243 10.9549 108.058 10.9549C109.206 10.9549 110.222 11.2253 111.103 11.766C112.002 12.3066 112.701 13.044 113.2 13.9779C113.716 14.9119 113.974 15.9769 113.974 17.1729C113.974 18.3691 113.716 19.4341 113.2 20.368C112.701 21.302 112.002 22.0392 111.103 22.5799C110.222 23.1207 109.206 23.391 108.058 23.391ZM107.36 19.9993C107.908 19.9993 108.383 19.8764 108.782 19.6307C109.198 19.3849 109.523 19.049 109.756 18.623C109.989 18.197 110.105 17.7136 110.105 17.1729C110.105 16.6159 109.989 16.1243 109.756 15.6983C109.523 15.2723 109.198 14.9446 108.782 14.7152C108.383 14.4694 107.917 14.3466 107.384 14.3466C106.852 14.3466 106.377 14.4694 105.962 14.7152C105.562 14.9446 105.246 15.2723 105.013 15.6983C104.78 16.1243 104.664 16.6159 104.664 17.1729C104.664 17.7136 104.772 18.197 104.988 18.623C105.221 19.049 105.545 19.3849 105.962 19.6307C106.377 19.8764 106.843 19.9993 107.36 19.9993Z" fill="#474747"/>
<path d="M117.712 23.1698C118.411 23.3501 119.118 23.4401 119.833 23.4401C121.348 23.4401 122.546 23.0961 123.428 22.4079C124.326 21.7198 124.776 20.794 124.776 19.6307C124.776 18.877 124.635 18.2707 124.351 17.812C124.069 17.3368 123.703 16.96 123.253 16.6814C122.804 16.4029 122.329 16.1816 121.83 16.0178C121.331 15.854 120.857 15.7147 120.408 15.6C119.958 15.4853 119.592 15.3542 119.309 15.2067C119.026 15.0593 118.885 14.8627 118.885 14.6169C118.885 14.3875 118.993 14.2154 119.209 14.1007C119.426 13.9697 119.75 13.9042 120.183 13.9042C120.632 13.9042 121.09 13.9943 121.555 14.1745C122.038 14.3547 122.471 14.6661 122.853 15.1085L125.025 12.9457C124.477 12.2575 123.761 11.7413 122.879 11.3973C122.014 11.0369 121.065 10.8566 120.033 10.8566C119.052 10.8566 118.194 11.0204 117.462 11.3481C116.73 11.6759 116.164 12.1264 115.765 12.6999C115.366 13.2569 115.166 13.9206 115.166 14.6907C115.166 15.4116 115.307 16.0097 115.59 16.4848C115.872 16.9435 116.239 17.3041 116.688 17.5662C117.137 17.8283 117.612 18.0332 118.111 18.1806C118.61 18.3281 119.085 18.4673 119.534 18.5985C119.983 18.7132 120.35 18.8524 120.632 19.0163C120.932 19.1637 121.082 19.3849 121.082 19.6798C121.082 19.9092 120.956 20.0894 120.707 20.2205C120.474 20.3516 120.133 20.4172 119.684 20.4172C119.034 20.4172 118.435 20.3025 117.887 20.0731C117.337 19.8273 116.863 19.4914 116.464 19.0654L114.292 21.2282C114.708 21.6706 115.207 22.0639 115.79 22.4079C116.389 22.7356 117.03 22.9895 117.712 23.1698Z" fill="#474747"/>
<path d="M131.74 23.4155C130.626 23.4155 129.635 23.1944 128.77 22.752C127.921 22.2932 127.256 21.6705 126.773 20.8841C126.29 20.0813 126.049 19.1637 126.049 18.1314V11.2007H129.868V18.0823C129.868 18.4919 129.934 18.8442 130.068 19.1391C130.218 19.4341 130.434 19.6635 130.717 19.8273C131 19.9911 131.341 20.073 131.74 20.073C132.306 20.073 132.756 19.901 133.089 19.5569C133.421 19.1964 133.588 18.7049 133.588 18.0823V11.2007H137.407V18.1069C137.407 19.1555 137.166 20.0813 136.683 20.8841C136.2 21.6705 135.535 22.2932 134.686 22.752C133.837 23.1944 132.856 23.4155 131.74 23.4155Z" fill="#474747"/>
<path d="M143.124 11.2007H139.305V23.1452H143.124V16.1653C143.124 15.7557 143.208 15.4116 143.374 15.133C143.557 14.8545 143.799 14.6415 144.098 14.4941C144.398 14.3301 144.739 14.2482 145.121 14.2482C145.671 14.2482 146.128 14.4203 146.494 14.7644C146.877 15.092 147.069 15.5591 147.069 16.1653V23.1452H150.888V16.1653C150.888 15.7557 150.971 15.4116 151.137 15.133C151.321 14.8545 151.562 14.6415 151.862 14.4941C152.161 14.3301 152.502 14.2482 152.885 14.2482C153.434 14.2482 153.892 14.4203 154.258 14.7644C154.64 15.092 154.831 15.5591 154.831 16.1653V23.1452H158.651V15.7475C158.651 14.748 158.435 13.896 158.002 13.1914C157.586 12.4705 157.012 11.9216 156.28 11.5448C155.564 11.1515 154.74 10.9549 153.808 10.9549C152.86 10.9549 152.002 11.1597 151.237 11.5694C150.74 11.8303 150.305 12.1671 149.933 12.5797C149.586 12.1481 149.164 11.795 148.666 11.5202C148.001 11.1433 147.243 10.9549 146.395 10.9549C145.496 10.9549 144.689 11.1433 143.974 11.5202C143.662 11.6769 143.379 11.8647 143.124 12.0835V11.2007Z" fill="#474747"/>
</g>
<defs>
<clipPath id="clip0_1_3">
<rect width="159" height="31" fill="white"/>
</clipPath>
</defs>
</svg>
