<svg width="615" height="200" viewBox="0 0 615 233" xmlns="http://www.w3.org/2000/svg">
  <rect width="614.087" height="232.142" fill="none"/>
  <path d="M148.395 97.506H164.104L160.775 142.835H148.395V97.506Z" fill="#474747"/>
  <path d="M193.384 120.138H180.875V131.551H187.774V142.835H174.62L168.495 137.161V114.529L174.62 108.854H199.574L205.829 114.529V142.835H193.384V120.138Z" fill="#474747"/>
  <path d="M213.593 137.097V108.725H229.472L225.973 131.422H238.482V108.725H250.927V154.119L244.672 159.793H219.718L232.687 148.509H238.482V142.771H219.718L213.593 137.097Z" fill="#474747"/>
  <path d="M282.883 108.79L297.88 106.627L295.199 142.835H282.883V108.79Z" fill="#474747"/>
  <path d="M327.809 120.138H315.3V142.835H302.92V108.854H333.999L340.254 114.529V142.835H327.809V120.138Z" fill="#474747"/>
  <path d="M397.1 131.551V120.138H409.544V137.161L403.29 142.835H378.336L372.21 137.161V125.813H384.591V131.551H397.1ZM372.21 103.116L378.336 97.506H403.29L409.544 103.116V114.529H397.1V108.854H384.591V120.138H372.21V103.116Z" fill="#474747"/>
  <path d="M417.308 114.529L423.434 108.854H448.388L454.642 114.529V137.161L448.388 142.835H429.689V145.858L417.308 154.184V114.529ZM442.198 120.138H429.689V131.551H442.198V120.138Z" fill="#474747"/>
  <path d="M460.58 114.529L466.706 108.854H491.66L497.914 114.529V137.161L491.66 142.835H466.706L460.58 137.161V114.529ZM485.47 120.138H472.961V131.551H485.47V120.138Z" fill="#474747"/>
  <path d="M530.568 120.138H518.059V142.835H505.678V108.854H536.758L543.012 114.529V125.813H530.568V120.138Z" fill="#474747"/>
  <path d="M556.902 142.835L550.776 137.161V97.506H565.431L563.157 108.79H575.472V120.138H563.092V131.551H575.666V142.835H556.902Z" fill="#474747"/>
  <path d="M117.09 85.6301L129.441 96.7077V141.527L117.09 152.86H80.1649V175.142H55.7178V85.6301H117.09ZM104.867 108.04H80.1649V130.322H104.867V108.04Z" fill="#474747"/>
  <path d="M46.2283 76.6556L51.2197 116.587C51.4132 118.135 49.3719 118.87 48.534 117.553L11.4307 59.2482C10.8109 58.2743 11.5105 57 12.6648 57H120.292C121.1 57 121.755 57.6549 121.755 58.4628V73.5486C121.755 74.3565 121.1 75.0114 120.292 75.0114H47.6798C46.7999 75.0114 46.1192 75.7826 46.2283 76.6556Z" fill="#474747"/>
  <path d="M139.256 156.896L136.473 139.897C136.218 138.342 138.262 137.539 139.134 138.85L160.882 171.562C161.528 172.534 160.831 173.835 159.664 173.835H118.138C117.33 173.835 116.675 173.18 116.675 172.372V160.058C116.675 159.25 117.33 158.596 118.138 158.596H137.812C138.714 158.596 139.401 157.787 139.256 156.896Z" fill="#474747"/>
  <circle cx="597.336" cy="94.1303" r="6.75099" fill="#474747"/>
</svg>
